{"title":"Amy.2015.DOCU.WEBRiP.XViD.AC3.5.1.ReLeNTLesS","uid":12648245,"size":1772756769,"categoryP":"video","categoryS":"movies","magnet":"?xt=urn:btih:81a9e4e853f030d186eac7e126c08689386396c5&amp;dn=Amy.2015.DOCU.WEBRiP.XViD.AC3.5.1.ReLeNTLesS&amp;tr=udp%3A%2F%2Ftracker.leechers-paradise.org%3A6969&amp;tr=udp%3A%2F%2Fzer0day.ch%3A1337&amp;tr=udp%3A%2F%2Fopen.demonii.com%3A1337&amp;tr=udp%3A%2F%2Ftracker.coppersurfer.tk%3A6969&amp;tr=udp%3A%2F%2Fexodus.desync.com%3A6969","seeders":0,"leechers":0,"uploader":"TvTeam","files":4,"time":1446085912,"description":"------------------------------------------------------------------------\r\n\r  https://www.torrenting.com\r\n\r\nSign up is OPEN - for time being. Come and have fun.\r\n\r\n------------------------------------------------------------------------P0STER\r\n[img]http://i.imgur.com/Q2ec8Y7.png[/img]\r\n\r\niMDB: http://www.imdb.com/title/tt2870648/\r\n\r\nGeneral\r\nComplete name               : Amy.2015.DOCU.WEBRiP.XViD.AC3.5.1.ReLeNTLesS.avi\r\nFormat                      : AVI\r\nFormat/Info                 : Audio Video Interleave\r\nFile size                   : 1.63 GiB\r\nDuration                    : 2h 3mn\r\nOverall bit rate            : 1 901 Kbps\r\n\r\nVideo\r\nID                          : 0\r\nFormat                      : MPEG-4 Visual\r\nFormat profile              : Advanced   \r\nFormat settings, BVOP       : 1\r\nFormat settings, QPel       : No\r\nFormat settings, GMC        : No warppoints\r\nFormat settings, Matrix     : Default (H.263)\r\nMuxing mode                 : Packed bitstream\r\nCodec ID                    : XVID\r\nCodec ID/Hint               : XviD\r\nDuration                    : 2h 3mn\r\nBit rate                    : 1 701 Kbps\r\nWidth                       : 720 pixels\r\nHeight                      : 384 pixels\r\nDisplay aspect ratio        : 1.85:1\r\nFrame rate                  : 25.000 fps\r\nColor space                 : YUV\r\nChroma subsampling          : 4:2:0\r\nBit depth                   : 8 bits\r\nScan type                   : Progressive\r\nCompression mode            : Lossy\r\nBits/(Pixel*Frame)          : 0.246\r\nStream size                 : 1.46 GiB (89%)\r\nWriting library             : XviD 1.2.1 (UTC 2008-12-04)\r\n\r\nAudio\r\nID                          : 1\r\nFormat                      : AC-3\r\nFormat/Info                 : Audio Coding 3\r\nMode extension              : CM (complete main)\r\nFormat settings, Endianness : Big\r\nCodec ID                    : 2000\r\nDuration                    : 2h 3mn\r\nBit rate mode               : Constant\r\nBit rate                    : 192 Kbps\r\nChannel(s)                  : 6 channels\r\nChannel positions           : Front: L C R, Side: L R, LFE\r\nSampling rate               : 48.0 KHz\r\nCompression mode            : Lossy\r\nStream size                 : 169 MiB (10%)\r\nAlignment                   : Aligned on interleaves\r\nInterleave, duration        : 64 ms (1.60 video frames)\r\nInterleave, preload duratio : 192 ms\r\nTitle                       : Amy.2015.DOCU.ReLeNTLesS.audio.ac3.5.1. English_new\r\nSample Included             : Yes\r\nSource                      : CtrlHD Thanks\r\n\r\nPL0T\r\nThe story of Amy Winehouse in her own words, featuring unseen archival footage and unheard tracks.\r\n\r\nCAST\r\nDirector: Asif Kapadia\r\nStars: Amy Winehouse, Mitch Winehouse, Mark Ronson\r\n\r\nN0TE\r\nResized, Degrained, tweeked colors Sat etc and sharpened. Sad Documentary, Hardcoded subs where needed.\r\n\r\nSCREENS\r\n[img]http://i.imgur.com/o14sCbc.png[/img]\r\n[img]http://i.imgur.com/XcrTUtT.png[/img]\r\n[img]http://i.imgur.com/HaPvxef.png[/img]\r\n[img]http://i.imgur.com/YIaN4Eu.png[/img]\r\n[img]http://i.imgur.com/bAaqh6w.png[/img]\r\n[img]http://i.imgur.com/7zyq2qF.png[/img]\r\n[img]http://i.imgur.com/q6CTkND.png[/img]\r\n[img]http://i.imgur.com/Dwuc2Tq.png[/img]\r\n\r\nTRAiLER","torrent":{"xt":"urn:btih:81a9e4e853f030d186eac7e126c08689386396c5","amp;dn":"Amy.2015.DOCU.WEBRiP.XViD.AC3.5.1.ReLeNTLesS","amp;tr":["udp%3A%2F%2Ftracker.leechers-paradise.org%3A6969","udp%3A%2F%2Fzer0day.ch%3A1337","udp%3A%2F%2Fopen.demonii.com%3A1337","udp%3A%2F%2Ftracker.coppersurfer.tk%3A6969","udp%3A%2F%2Fexodus.desync.com%3A6969"],"infoHash":"81a9e4e853f030d186eac7e126c08689386396c5","infoHashBuffer":{"type":"Buffer","data":[129,169,228,232,83,240,48,209,134,234,199,225,38,192,134,137,56,99,150,197]},"announce":[],"urlList":[]}}